# AST/ASF file generated using VICON BodyLanguage
# -----------------------------------------------
:version 1.10
:name VICON
:units
  mass 1.0
  length 0.45
  angle deg
:documentation
   .ast/.asf automatically generated from VICON data using
   VICON BodyBuilder and BodyLanguage model FoxedUp or BRILLIANT.MOD
:root
   order TX TY TZ RX RY RZ
   axis XYZ
   position 0 0 0  
   orientation 0 0 0 
:bonedata
  begin
     id 1 
     name lhipjoint
     direction 0.627457 -0.725269 0.283342 
     length 2.53237 
     axis 0 0 0  XYZ
  end
  begin
     id 2 
     name lfemur
     direction 0.34202 -0.939693 0  
     length 7.32496  
     axis 0 0 20  XYZ
    dof rx ry rz
    limits (-160.0 20.0)
           (-70.0 70.0)
           (-60.0 70.0)
  end
  begin
     id 3 
     name ltibia
     direction 0.34202 -0.939693 0   
     length 7.69674   
     axis 0 0 20   XYZ
    dof rx
    limits (-10.0 170.0)
  end
  begin
     id 4 
     name lfoot
     direction 0.127289 -0.349722 0.928166   
     length 1.8612   
     axis -90 7.62852e-016 20   XYZ
    dof rx rz
    limits (-45.0 90.0)
           (-70.0 20.0)
  end
  begin
     id 5 
     name ltoes
     direction 1.53561e-011 -4.21864e-011 1   
     length 0.925608   
     axis -90 7.62852e-016 20   XYZ
    dof rx
    limits (-90.0 20.0)
  end
  begin
     id 6 
     name rhipjoint
     direction -0.609094 -0.738725 0.288599   
     length 2.48624  
     axis 0 0 0  XYZ 
  end
  begin
     id 7 
     name rfemur
     direction -0.34202 -0.939693 0   
     length 7.44259   
     axis 0 0 -20   XYZ
    dof rx ry rz
    limits (-160.0 20.0)
           (-70.0 70.0)
           (-70.0 60.0)
  end
  begin
     id 8 
     name rtibia
     direction -0.34202 -0.939693 0   
     length 7.7781   
     axis 0 0 -20   XYZ
    dof rx
    limits (-10.0 170.0)
 end
 begin
     id 9 
     name rfoot
     direction -0.107015 -0.294021 0.949789   
     length 2.14741  
     axis -90 -7.62852e-016 -20   XYZ
    dof rx rz
    limits (-45.0 90.0)
           (-20.0 70.0)
  end
  begin
     id 10 
     name rtoes
     direction -1.53497e-011 -4.21924e-011 1   
     length 1.0706   
     axis -90 -7.62852e-016 -20   XYZ
    dof rx
    limits (-90.0 20.0)
  end
  begin
     id 11 
     name lowerback
     direction -0.0142066 0.998112 -0.0597545   
     length 1.86627   
     axis 0 0 0   XYZ
    dof rx ry rz
    limits (-20.0 45.0)
           (-30.0 30.0)
           (-30.0 30.0)
  end
  begin
     id 12 
     name upperback
     direction 0.00547294 0.999744 0.0219437   
     length 1.86272   
     axis 0 0 0   XYZ
    dof rx ry rz
    limits (-20.0 45.0)
           (-30.0 30.0)
           (-30.0 30.0)
  end
  begin
     id 13 
     name thorax
     direction 0.0116162 0.998704 0.0495538   
     length 1.8703   
     axis 0 0 0   XYZ
    dof rx ry rz
    limits (-20.0 45.0)
           (-30.0 30.0)
           (-30.0 30.0)
  end
  begin
     id 14 
     name lowerneck
     direction -0.0106574 0.998739 0.0490586   
     length 1.8074   
     axis 0 0 0   XYZ
    dof rx ry rz
    limits (-20.0 45.0)
           (-30.0 30.0)
           (-30.0 30.0)
  end
  begin
     id 15 
     name upperneck
     direction 0.030527 0.976587 -0.212944   
     length 1.80681   
     axis 0 0 0   XYZ
    dof rx ry rz
    limits (-20.0 45.0)
           (-30.0 30.0)
           (-30.0 30.0)
  end
  begin
     id 16
     name head
     direction 0.00869225 0.997035 -0.0764531  
     length 1.8313  
     axis 0 0 0   XYZ
    dof rx ry rz
    limits (-20.0 45.0)
           (-30.0 30.0)
           (-30.0 30.0)
  end
  begin
     id 17 
     name lclavicle
     direction 0.915958 0.399447 0.0382386  
     length 3.78965  
     axis 0 0 0   XYZ
    dof ry rz
    limits (-20.0 10.0)
           (0.0 20.0)
  end
  begin
     id 18 
     name lhumerus
     direction 1 -4.48967e-011 3.19303e-027   
     length 4.78095   
     axis -180 -30 -90   XYZ
    dof rx ry rz
    limits (-60.0 90.0)
           (-90.0 90.0)
           (-90.0 90.0)
  end
  begin
     id 19
     name lradius
     direction 1 -4.48967e-011 -3.77974e-027   
     length 3.58615   
     axis -180 -30 -90   XYZ
    dof rx
    limits (-10.0 170.0)
  end
  begin
     id 20
     name lwrist
     direction 1 -4.48927e-011 1.2807e-027   
     length 1.79307   
     axis 1.91374e-015 90 90   XYZ
    dof ry
    limits (-180.0 0.0)
 end
  begin
     id 21 
     name lhand
     direction 1 -4.49036e-011 2.5614e-027   
     length 0.659812   
     axis -1.63439e-015 90 90   XYZ
    dof rx rz
    limits (-90.0 90.0)
           (-45.0 45.0)
  end
  begin
     id 22 
     name lfingers
     direction 1 -4.49052e-011 5.1228e-027   
     length 0.531957   
     axis -3.26879e-015 90 90   XYZ
    dof rx
    limits (0.0 90.0)
  end
  begin
     id 23
     name lthumb
     direction 0.707107 -6.35012e-011 0.707107   
     length 0.763787   
     axis -90 45 2.85299e-015   XYZ
    dof rx rz
    limits (-45.0 45.0)
           (-45.0 45.0)
  end
  begin
     id 24 
     name rclavicle
     direction -0.895351 0.435135 0.0948887   
     length 3.70497  
     axis 0 0 0   XYZ 
    dof ry rz
    limits (-10.0 20.0)
           (-20.0 0.0)
  end
  begin
     id 25 
     name rhumerus
     direction -1 -4.48971e-011 2.38946e-027  
     length 4.48913   
     axis -180 30 90   XYZ
    dof rx ry rz
    limits (-90.0 60.0)
           (-90.0 90.0)
           (-90.0 90.0)
  end
  begin
     id 26 
     name rradius
     direction -1 -4.4895e-011 4.38668e-027   
     length 3.7051   
     axis -180 30 90   XYZ
    dof rx
    limits (-10.0 170.0)
  end
  begin
     id 27 
     name rwrist
     direction -1 -4.49007e-011 1.2807e-027   
     length 1.85255   
     axis 1.91374e-015 -90 -90   XYZ
    dof ry
    limits (-180.0 0.0)
  end
  begin
     id 28
     name rhand
     direction -1 -4.48851e-011 2.5614e-027   
     length 0.449136   
     axis -1.63439e-015 -90 -90   XYZ
    dof rx rz
    limits (-90.0 90.0)
           (-45.0 45.0)
  end
  begin
     id 29
     name rfingers
     direction -1 -4.49128e-011 5.1228e-027   
     length 0.362105   
     axis -3.26879e-015 -90 -90   XYZ
    dof rx
    limits (0.0 90.0)
  end
  begin
     id 30
     name rthumb
     direction -0.707107 -6.34851e-011 0.707107   
     length 0.519912   
     axis -90 -45 -2.85299e-015   XYZ
    dof rx rz
    limits (-45.0 45.0)
           (-45.0 45.0)
  end
:hierarchy
  begin
    root lhipjoint rhipjoint lowerback
    lhipjoint lfemur
    lfemur ltibia
    ltibia lfoot
    lfoot ltoes
    rhipjoint rfemur
    rfemur rtibia
    rtibia rfoot
    rfoot rtoes
    lowerback upperback
    upperback thorax
    thorax lowerneck lclavicle rclavicle
    lowerneck upperneck
    upperneck head
    lclavicle lhumerus
    lhumerus lradius
    lradius lwrist
    lwrist lhand lthumb
    lhand lfingers
    rclavicle rhumerus
    rhumerus rradius
    rradius rwrist
    rwrist rhand rthumb
    rhand rfingers
  end

#!OML:ASF I:\Actors\actors\Patient Classification 2\Patient 1\Session 1\actor1.ASF
:FULLY-SPECIFIED
:DEGREES
1
root -0.618605 18.6308 5.89934 -0.968518 -4.75838 -4.08273
lowerback 2.2926 2.20074 1.42875
upperback -1.57295 2.99989 0.461972
thorax -2.85106 1.4723 -0.46558
lowerneck -12.5482 -1.79964 1.28689
upperneck 22.6874 -3.10657 1.19644
head 9.19672 -1.21407 -0.165704
rclavicle -2.72583e-014 1.19271e-015
rhumerus -49.5494 -3.09786 -87.7666
rradius 42.0731
rwrist 15.6154
rhand -3.9907 -37.3503
rfingers 7.12502
rthumb 21.7629 -66.1468
lclavicle -2.72583e-014 1.19271e-015
lhumerus -43.0607 4.80585 87.5702
lradius 37.5318
lwrist -15.4756
lhand -5.7317 -25.3148
lfingers 7.12502
lthumb 20.0903 3.66648
rfemur 0 0 0
rtibia 0
rfoot 0 0
rtoes 0
lfemur -1.30447 -7.32462 -11.5454
ltibia 23.1391
lfoot -26.3624 15.3921
ltoes -54.2015
2
root -0.618043 18.6311 5.89924 -0.969739 -4.74563 -4.08976
lowerback 2.31426 2.20828 1.45702
upperback -1.58953 3.01136 0.451837
thorax -2.87818 1.47703 -0.49359
lowerneck -12.4938 -1.81436 1.32331
upperneck 22.6238 -3.12012 1.14544
head 9.1628 -1.2242 -0.189769
rclavicle -1.43373e-014 3.57812e-015
rhumerus -49.5687 -3.1648 -87.7537
rradius 42.0925
rwrist 15.6228
rhand -4.02606 -37.3952
rfingers 7.12502
rthumb 21.7289 -66.1956
lclavicle -1.43373e-014 3.57812e-015
lhumerus -43.0929 4.72766 87.5846
lradius 37.6585
lwrist -15.1683
lhand -5.43067 -25.1588
lfingers 7.12502
lthumb 20.3796 3.79183
rfemur 0 0 0
rtibia 0
rfoot 0 0
rtoes 0
lfemur -1.3114 -7.35547 -11.5405
ltibia 23.1563
lfoot -26.3939 15.3725
ltoes -54.1197
3
root -0.618207 18.6316 5.89851 -0.960828 -4.73793 -4.10364
lowerback 2.33947 2.21203 1.47759
upperback -1.61354 3.01794 0.450917
thorax -2.91592 1.47945 -0.50801
lowerneck -12.4519 -1.83367 1.29969
upperneck 22.5958 -3.14806 1.17807
head 9.14625 -1.23646 -0.177227
rclavicle -2.07481e-014 5.56597e-015
rhumerus -49.5888 -3.18693 -87.7494
rradius 42.1045
rwrist 15.6166
rhand -4.02087 -37.4769
rfingers 7.12502
rthumb 21.7339 -66.2767
lclavicle -2.07481e-014 5.56597e-015
lhumerus -43.1129 4.69594 87.5728
lradius 37.7003
lwrist -15.0714
lhand -5.29482 -25.1023
lfingers 7.12502
lthumb 20.5101 3.83436
rfemur 0 0 0
rtibia 0
rfoot 0 0
rtoes 0
lfemur -1.32868 -7.36983 -11.5199
ltibia 23.1669
lfoot -26.4133 15.355
ltoes -54.0582
4
root -0.618785 18.6316 5.89741 -0.958934 -4.75562 -4.1146
lowerback 2.36557 2.21121 1.47424
upperback -1.62699 3.01783 0.464766
thorax -2.94542 1.47928 -0.493442
lowerneck -12.442 -1.82805 1.24973
upperneck 22.5917 -3.13983 1.22442
head 9.14464 -1.23197 -0.151971
rclavicle -5.71506e-015 6.36111e-015
rhumerus -49.6001 -3.15107 -87.755
rradius 42.1047
rwrist 15.6283
rhand -4.01969 -37.5108
rfingers 7.12502
rthumb 21.7351 -66.3105
lclavicle -5.71506e-015 6.36111e-015
lhumerus -43.1168 4.76229 87.5383
lradius 37.6792
lwrist -15.1261
lhand -5.30623 -25.1284
lfingers 7.12502
lthumb 20.4992 3.80945
rfemur 0 0 0
rtibia 0
rfoot 0 0
rtoes 0
lfemur -1.33495 -7.3379 -11.4976
ltibia 23.1772
lfoot -26.4255 15.3139
ltoes -54.0288
5
root -0.619084 18.6314 5.89671 -0.975834 -4.76352 -4.12293
lowerback 2.39006 2.21253 1.48307
upperback -1.6274 3.02061 0.471199
thorax -2.95949 1.48041 -0.492981
lowerneck -12.4051 -1.80429 1.25396
upperneck 22.517 -3.10953 1.24502
head 9.11216 -1.21653 -0.141342
rclavicle -2.79789e-014 -5.56597e-015
rhumerus -49.605 -3.09342 -87.7804
rradius 42.105
rwrist 15.5869
rhand -4.02456 -37.5363
rfingers 7.12502
rthumb 21.7304 -66.3366
lclavicle -2.79789e-014 -5.56597e-015
lhumerus -43.1039 4.81296 87.5109
lradius 37.6741
lwrist -15.1491
lhand -5.28416 -25.0401
lfingers 7.12502
lthumb 20.5204 3.89543
rfemur 0 0 0
rtibia 0
rfoot 0 0
rtoes 0
lfemur -1.31919 -7.36238 -11.4941
ltibia 23.188
lfoot -26.459 15.3239
ltoes -53.9959
